# xmcd
#
# Track frame offsets: 
#        150
#        19877
#        47900
#        71870
#        93305
#        117200
#        139215
#        153725
#        185647
#
# Disc length: 2831 seconds
#
# Revision: 2
# Processed by: cddbd v1.5.2PL0 Copyright (c) Steve Scherf et al.
# Submitted via: ExactAudioCopyFreeDBPlugin 1.0
#
DISCID=840b0d09
DTITLE=Tadeusz Nalepa and Dzem - Numero Uno
DYEAR=1992
DGENRE=Blues
TTITLE0=Ten o tobie film
TTITLE1=Noc jak owoc
TTITLE2=P jdziesz tylko z cieniem
TTITLE3=Zostan w moim snie
TTITLE4=Naprz d czy w tyl
TTITLE5=Wstan i idz
TTITLE6=Zly
TTITLE7=Piesci ze stali
TTITLE8=Hold
EXTD=
EXTT0=
EXTT1=
EXTT2=
EXTT3=
EXTT4=
EXTT5=
EXTT6=
EXTT7=
EXTT8=
PLAYORDER=
